<?xml version="1.0" encoding="utf-8"?>
<!-- Generator: Adobe Illustrator 24.3.0, SVG Export Plug-In . SVG Version: 6.00 Build 0)  -->
<svg version="1.1" id="Layer_1" xmlns="http://www.w3.org/2000/svg" xmlns:xlink="http://www.w3.org/1999/xlink" x="0px" y="0px"
	 viewBox="0 0 316.1 75.1" style="enable-background:new 0 0 316.1 75.1;" xml:space="preserve">
<style type="text/css">
	.st0{fill:#6C6B6B;}
	.st1{fill:#706F6E;}
	.st2{fill:#6A6A69;}
	.st3{fill:#828280;}
	.st4{fill:#9E9E9E;}
	.st5{fill:#545353;}
	.st6{fill:#787777;}
	.st7{fill:#7D7C7C;}
	.st8{fill:#C7C7C6;}
	.st9{fill:#858585;}
	.st10{fill:#666665;}
	.st11{fill:#6B6A6A;}
	.st12{fill:#8C8C8C;}
	.st13{fill:#6D6B6B;}
	.st14{fill:#747473;}
	.st15{fill:#908F8F;}
	.st16{fill:#929292;}
	.st17{fill:#929290;}
	.st18{fill:#6E6E6D;}
	.st19{fill:#D1D0CE;}
	.st20{fill:#939393;}
	.st21{fill:#807F7F;}
	.st22{fill:#707070;}
	.st23{fill:#8A8988;}
	.st24{fill:#7A7A79;}
	.st25{fill:#919091;}
	.st26{fill:#868585;}
	.st27{fill:#CECECB;}
	.st28{fill:#6B6B69;}
	.st29{fill:#808080;}
	.st30{fill:#8B8B8B;}
	.st31{fill:#868686;}
	.st32{fill:#7B7B7B;}
	.st33{fill:#767676;}
	.st34{fill:#6D6D6D;}
	.st35{fill:#666664;}
	.st36{fill:#5E5E5D;}
	.st37{fill:#757573;}
	.st38{fill:#6A6A6A;}
	.st39{fill:#767573;}
	.st40{fill:#818180;}
	.st41{fill:#716E6D;}
	.st42{fill:#9D9C9C;}
	.st43{fill:#70706E;}
	.st44{fill:#979696;}
	.st45{fill:#939392;}
	.st46{fill:#9C9C9C;}
	.st47{fill:#747474;}
	.st48{fill:#515050;}
	.st49{fill:#8F8F8F;}
	.st50{fill:#767575;}
	.st51{fill:#9B9B99;}
	.st52{fill:#6A6868;}
	.st53{fill:#797978;}
	.st54{fill:#777777;}
	.st55{fill:#6F6F6F;}
	.st56{fill:#747373;}
	.st57{fill:#5A5A5A;}
	.st58{fill:#585858;}
	.st59{fill:#696968;}
	.st60{fill:#9A9799;}
	.st61{fill:#999997;}
	.st62{fill:#333332;}
	.st63{fill:#686969;}
	.st64{fill:#706F6F;}
	.st65{fill:#757374;}
	.st66{fill:#767373;}
	.st67{fill:#2F2F2E;}
	.st68{fill:#D3D4D1;}
	.st69{fill:#C5C4C4;}
	.st70{fill:#E3E1E1;}
	.st71{fill:#676767;}
	.st72{fill:#70706D;}
	.st73{fill:#757473;}
</style>
<path class="st0" d="M39,68.6c-1.8,0-3.6-0.3-5.4-0.1c-2.4,0.2-5.6-1.4-5.7,3.5c-0.1,4.7,2.7,4.4,5.7,4.4c0.5,0,1,0.1,1.5,0.1
	c0.4,0.2,0.5,0.4,0.4,0.6c-0.1,0.2-0.2,0.3-0.3,0.3c-4,0.2-8.1-0.9-12,0.8c-0.2-0.4-0.3-0.9-0.1-1.4c2.3-5.4,1.3-7-4.4-7.1
	c-3-0.1-6,0.1-9,0c-2.5-0.1-4.6,0.6-6.1,2.7c-0.4,0.3-0.8,0.4-1.3,0.3c-1.7-1.8-1.5-4.3,0.4-5C5.6,66.7,3.9,66,3,65
	c0.1-0.2,0.2-0.4,0.3-0.6c6.2,1.9,12.6,2.1,19,2.2c1.8,0,1.5-0.9,2.2-1.5c1.6-1.5,1.2-4.1,3.2-6c1.2,3,1.3,6.6,4.6,7.2
	c2.9,0.5,5.9,0,8.9-0.1C42.1,68.4,41.3,69.2,39,68.6z"/>
<path class="st1" d="M176.6,71.2c2.1,0.4,4.2,0.8,6.3,1.2c0.5-0.4,1-0.6,1.6-0.4c1.1-3-0.8-6.4,1.1-9.3c0.4-0.4,0.8-0.4,1.2-0.1
	c0.1,3.6,0.1,7.2,0.2,10.9c0.5,0.4,0.6,0.8,0.1,1.3c-0.5,0.3-1.1,0.8-1.6,0.8c-11.5-0.1-23-0.3-34.5,0.6c-1.1,0.1-2.3,0.4-3.1-0.8
	c2.2-1.7,4.7-2.2,7.4-2.2c1.6,0,3.1-0.1,2.3-2.5c-0.1-0.5,0.1-0.9,0.4-1.2c0-1-0.1-2-0.1-3c-0.5-1.7-0.6-3.4,0.4-5.5
	c1.9,2.3,0.9,4.4,1.2,6.2c1-3.3-1.6-6.8,0-10.2c0.4-0.6,0.8-0.7,1.4-0.4c0.1,4.6,0,9.2,0.2,13.8c0.1,1.7-1,4.2,2.5,4
	c3.3-0.2,2.3-2.5,2.5-4.3c0.2-2.1-0.6-4.2,0.5-6.6c2.3,2.1,2.4,4.6,2.5,7.1c-0.5,0.9-1.3-1.1-1.2-0.1c0.1,1.8,1.5,2.8,3.4,2.7
	c3.5-0.1,6.9,0.3,10.3,0.8C179.7,73.3,177.2,74.3,176.6,71.2z"/>
<path class="st2" d="M133.3,28.3c1.4,0,1.9,0.8,2.1,2.2c1.8,12.2,2,24.5,1.8,36.8c0,1.5-0.1,3,0,4.5c0.1,1.7-0.1,2.9-2.3,2.9
	c-2.3,0-2.8-1-2.8-3.1c0.1-5.3,0-10.6,0-16.1c-1.7,0.7-0.6,2.1-1.2,3c-0.2,0.4-0.5,0.5-0.7,0c-0.2-2.5-0.4-4.9,2-7.5
	c1.5,5.5,0.6,10.6,1.1,15.6c0.2,2.3-2.1,6.3,1.6,6.5c2.1,0.1,1-4.2,1-6.4c0.2-8.3,0.1-16.6,0.1-25.1c-1.5,1.4,0,3.4-1.6,4.7
	c-1-2.7-1.8-5-0.8-8c0.9-3,1.5-6.4-0.6-9.5L133.3,28.3z"/>
<path class="st3" d="M77.2,76.5c-3.7,2.2-7.8,0.1-11.9,1.3c3.8-7.8-0.3-16,3.4-23.3c2.2,5.1,1.5,10.3,0.8,15.4
	c-0.5,3.7,0.2,5.5,4.3,4.4C75.5,74.1,77.2,74,77.2,76.5z"/>
<path class="st4" d="M138.2,75.5c0-8.7,0-17.4,0-26.1c0.6-10.6,0.6-21.2,0-31.7c0-1.3-0.7-2.8,1.7-4.5c0,17.6,0,34.5,0,51.4
	c-0.8,2.7-0.1,5.6-0.4,8.3C139.5,73.9,140.1,75.4,138.2,75.5z"/>
<path class="st5" d="M148.1,69.4c-1.8-14.7-1.8-29.4-1.2-44.3c0.4,4.2,0.9,8.5,1.1,12.7c0.5,9.1,0.8,18.3,1.1,27.4
	c0,1.5,0.2,2.9,1,4.2C149.4,70.1,148.8,70,148.1,69.4z"/>
<path class="st6" d="M118,75.4c0.3-1.2,0.6-2.5,1.1-4.7c-5,4.5-6,2.2-5.7-2.3c0.2,0,0.3,0,0.5,0c0.8,2.5,1.9,3.5,3.9,1
	c1.6-6.3,0.9-12.6,0.4-18.9c-0.3-5.3-0.6-10.7-0.9-16c0.3-0.4,0.6-0.5,0.8,0c1.9,2,2.1,4.4,2.1,7c-0.1,9.6-0.1,19.2-0.1,28.7
	c0,1.8,0.4,3.7-1,5.2C118.7,75.9,118.4,75.8,118,75.4z"/>
<path class="st7" d="M101.2,42.5c2.2-6.2,0.5-12.6,0.9-18.9c0.3-3.7,0.8-6.9,4.7-8.4c0.5-0.1,0.7,0.1,0.6,0.6
	c-3.1,2.3-4,5.4-3.9,9.1c0.3,11.9,0.4,23.7,0.5,35.6c-0.5,0.2-0.9,0.2-1.2-0.2c-1-2.6-0.7-5.2-0.2-7.8c0-0.2,0.1-0.4,0.1-0.5
	c-0.2,0.1-0.2,0.4-0.3,0.6c-0.4,0.2-0.7,0.2-1.1-0.1c0.5-3.4-2.3-6.5-1-10C100.6,42,100.9,42,101.2,42.5z"/>
<path class="st8" d="M160.2,56.5c0,3.9,0,7.9,0,11.8c-0.3,0-0.6,0.1-0.8,0.1c-0.2-1.9-0.4-3.8-0.8-7c-0.3,2.5-0.5,3.8-0.7,5
	c-1.5-2.3-0.9-4.8-0.7-7.3c0.8-12.6,0.1-25.3,0.4-37.9c0.2-1.1-0.6-2.6,1.3-2.9c0,3.9,0.1,7.9,0.2,11.8c0,1.6-0.4,3.3,1.1,4.5
	c-1.6,5.2-0.1,10.3,0.1,15.5C160.4,52.4,160.9,54.5,160.2,56.5z"/>
<path class="st9" d="M187.2,74.7c0-0.4-0.1-0.9-0.1-1.3c4.4,1,7.5-0.1,8-5.2c0.2,6.1,4.1,6.8,8.8,5.9c4.6-0.9,9.4,0.7,13.8-1.7
	c0.2-0.3,0.3-0.7,0.5-1c0.2,0,0.3,0,0.5,0c0.1,0.9,0.2,1.9,1.4,2.1c0.6,0.6,0.5,1.2,0,1.8c-8.9,0.1-17.7,0.1-26.6,0.2
	C191.4,75.6,189.2,75.8,187.2,74.7z"/>
<path class="st10" d="M248.3,54.5c-1,0.1-2.3-0.4-2.3,1.5c0.1,5.4,0,10.8,0,16.2c0,0.9-0.2,2,1.3,2.1c1.4,0.1,2.6-0.1,2.6-1.9
	c0.7-0.3,1.2,0.1,1.6,0.7c0.1,0.4,0.2,0.8,0.2,1.3c-0.1,0.4-0.4,0.8-0.7,1.1c-8.2,0.7-16.3-0.6-24.7-0.3c1.5-0.6,3.1-1.2,4.6-1.8
	c0.4-0.3,0.9-0.5,1.4-0.5c2.8,0.3,5.5,0.2,8.3,0.3c2,0,3.1-0.7,3.3-2.7c0.6-2.7-0.7-5.6,1-8.1c0-2.3-0.1-4.6,0.1-6.9
	c0.1-1-0.9-2.6,0.8-2.9C246.9,52.3,247.8,53.4,248.3,54.5z"/>
<path class="st11" d="M290.1,44.4c-1.4,2-1,4.4-1,6.7c0,7.8,0,15.6,0,23.4c-0.6,0.4-1.1,0.3-1.5-0.3c-0.3-0.5-0.4-1.1-0.4-1.7
	c0.9-6,0-12,0.3-15.7c0.1,3.3,0.1,8.9-0.1,14.4c-1.6,1.3-2.5,0.7-3-1c0.2-4.8,0.8-9.7-0.2-14.5c-0.2-0.5-0.3-0.9-0.4-1.4
	c2.6-2,5.1-3.9,4.3-7.8C287.7,45,288.5,44.2,290.1,44.4z"/>
<path class="st12" d="M77.2,76.5c-0.8-1.3-2.2-1.6-3.4-2.3c2.6-3.2,0.9-7,1.3-10.4c0.2-2.1,0.1-4.3,0.2-6.4c0.9-1.5-0.3-3.5,0.9-4.9
	c0.7-0.1,2-1.2,1.9-0.4C77.5,60.2,79.3,68.4,77.2,76.5z"/>
<path class="st6" d="M157.1,10.5c-1.4-0.3-4.4,1.1-2.4-2.7c0.8-1.5,0.1-3.8,0.1-5.9c-5.1,1.3-0.9,7.4-3.6,8c-4.7,1-2.2,5.3-4.6,7.5
	c-1.1-2.6,0.3-5.3-1.7-7.7c4.1,0.3,6.1-1.1,5.8-5.2c-0.2-2.4,1.9-4.7,3.6-4.5c2.2,0.1,1.9,3,1.8,4.9c-0.1,1.9,0.1,3.5,2.1,4.4
	C158.6,10.4,158.1,10.7,157.1,10.5z"/>
<path class="st13" d="M109.2,30.6c0,13,0,25.9,0.1,38.9c0,1.8-0.6,3.7,0.8,5.2c0.6,0.5,0.6,1,0,1.6c-1.5-0.1-4.9,1.7-2.2-2.4
	c0.7-1.1,0.3-2.9,0.3-4.4c0-13.3,0.1-26.5,0.1-39.8C109.1,29.4,109.6,29.5,109.2,30.6z"/>
<path class="st14" d="M101.2,52.5c0.3,0,0.6,0,1,0c0.6,7.4,1.5,14.8,0.5,22.3c-1.9,2-2.5-0.1-3.2-1.1c-1.3-2.1-1.9-4.6-3.1-6.9
	c-1.8,0.9-0.6,5.2-4.2,3.7c-0.3-0.5-0.1-0.9,0.3-1.2c1.5-2.3,0.1-7,3-7.2c3-0.2,3.2,4.4,4.7,6.8c0.1,0.2,0.5,0.3,1.1,0.7
	C101.2,63.7,101.2,58.1,101.2,52.5z"/>
<path class="st15" d="M298.1,69.3c4.2,0.8,6.7-0.1,6-5.1c-0.2-1.2-0.2-2.7,0.7-3.8c0.3-0.4,0.7-0.4,1,0c-1.8,4.8,3.9,5,5,8.1
	c-0.5,0.4-1,0.4-1.4,0c-1.4-1.1-2.2-1.4-2.3,1c-0.1,1.6,2.2,3.4-0.2,4.9c-0.5-0.3-1.2-0.6-1.6-1.1c-2.5-2.2-6,0.8-8.5-1.7
	C296.6,70.4,297.1,69.8,298.1,69.3z"/>
<path class="st16" d="M61.2,49.3c-4.1-0.1-5.4,2-5.2,5.9c0.2,4,0.2,7.9,0.1,11.9c0,1.2,0.7,2.7-1.7,3.7c-0.3-6.4-0.6-12.5,0-18.6
	c0.4-4,3.9-3.9,6.6-4.9C61.7,48,61.7,48.6,61.2,49.3z"/>
<path class="st17" d="M244.9,62.3c0,3,0.1,6.1,0.1,9.1c-7.4,4.5-11.3,2.3-12.5-7.2c0.1-0.9,0.6-1.5,1.5-1.8c1.3,0.9,1.1,2.3,1.4,3.5
	c0.6,2.8,1,5.5,5.2,4.5c4.3-1,1.8-4.1,2.3-6.3c0.1-0.5-0.5-1.2-0.8-1.7c-0.3-0.3-0.4-0.5-0.3-0.8c0.1-0.2,0.2-0.4,0.3-0.4
	C243,61.7,244,62,244.9,62.3z"/>
<path class="st18" d="M171.9,47.3c-1.9,2.9,0,6.4-1.6,9.4c-1-3.5-4.2-6.7-0.9-10.8c1.3-1.6,0.6-3.9,0.4-5.8
	c-0.2-2.6-0.3-5.1,0.2-7.7c2,4.1,0.5,8.6,1.2,12.9C171.5,46,172.6,46.3,171.9,47.3z"/>
<path class="st19" d="M148.1,69.4c0.7,0,1.3,0,2,0.1c0,0-0.1-0.1-0.1-0.1c2.6,0.8,5.3,1.2,8,1c0.9,0.9,2.4,1.4,1.8,3.1
	c-0.5,1.4-1.9,1.1-3,1.2c-2.9,0.2-5.9,0.4-8.8,0.6C149.5,73.4,149.3,71.4,148.1,69.4z"/>
<path class="st20" d="M2.1,72.4c0.3-0.1,0.6-0.1,0.9-0.1c0.9,2,2.9,3,4.4,4.4c0.2,0.9-0.5,1.2-1.1,1.5c-3.9-0.8-7.7,2-12,0.8
	c4.2-2.5,4.2-2.5,5.8-9.8c0.6,0.1,1.1,0.4,1.4,0.9C1.8,71,1.5,71.8,2.1,72.4z"/>
<path class="st21" d="M218.7,71.4l-0.3,0c0,0-0.3,0-0.3,0c-2.2-4.6-0.9-9.4-1.2-14.1c-0.2-2.6,0.2-4.6-3.6-5
	c-2.3-0.3-4.3-2.6-6.8-4.3c1.9-1,3.1,0,4.2,0.7c0.8,0.5,1.4,1.9,2.2,1.9c6.9,0.4,5.2,5.4,5.3,9.5C218.4,63.9,218.5,67.7,218.7,71.4z
	"/>
<path class="st22" d="M158,20.5c0,11.3,0,22.6,0,33.9c0,1.6,0.6,3.3-0.8,4.8c0-12.9,0-25.8,0-38.6C157.5,20.1,157.8,20.1,158,20.5z"
	/>
<path class="st6" d="M305.8,60.4c-0.3,0-0.7,0-1,0c0-2.3,0-4.6,0-6.9c0.1-8.5-5-12.1-13-9.2c-0.6,0.2-1.3,0.1-1.9,0.1
	c2.6-2.2,5.8-4.8,8.9-3.1c3.9,2.2,8.2,5.1,7.3,11.1C305.7,55.1,305.9,57.8,305.8,60.4z"/>
<path class="st7" d="M287.9,74.4c0.4,0,0.8,0,1.1,0c0.1,0.3,0.1,0.7-0.1,1c-12.6,0-25.3,0-37.9,0c0-0.4,0.1-0.8,0.1-1.1
	c1.4-1.2,3-1.3,4.7-1.2c9.1,0.3,18.3-0.2,27.4,0C284.9,73.1,286.6,73.2,287.9,74.4z"/>
<path class="st23" d="M184.8,72.6c-0.6-0.1-1.2-0.1-1.8-0.2c-0.1-9.3,0.7-18.6-0.3-27.9c4.2,1.7,1.6,5.4,2.3,8.1
	C185.9,59.2,185.1,65.9,184.8,72.6z"/>
<path class="st24" d="M242.1,61.4c0,0.4,0,0.7-0.1,1.1c-2.5-2.1-1.3-5.2-1.8-7.8c-0.5-2.7-0.4-5.6-1.7-8.3c-0.3,0.7-0.7,1.4-1.1,2.1
	c-0.5,1-0.6,3.3-2.4,2.3c-2.8-1.7,1.4-1.2,1.2-2.8c-0.2-1.4,1-3,1.6-4.6c0.6,0.2,0.8,0.8,1.3,1.1C241.8,49.8,241.7,55.6,242.1,61.4z
	"/>
<path class="st25" d="M75,42.5c-1.9-3.8-5.2-4.3-8.3-1.3c-0.4-3.7-0.4-3.8,2.5-3.8c2.6,0,5.4,1,6.8-2.7c0,2.6,0,5.2,0,7.8
	C75.7,43,75.3,43,75,42.5z"/>
<path class="st26" d="M138.3,17.6c1.8,8.6,0.4,17.4,0.7,26c0.1,1.9,0.7,4-0.7,5.7C138.3,38.8,138.3,28.2,138.3,17.6z"/>
<path class="st27" d="M184.8,72.6c-0.5-6.7-1.5-13.4,0.2-20.1c0.4,0,0.7,0,1.1,0c0.3,0.2,0.4,0.5,0.4,0.8c0,0.3,0,0.5-0.1,0.5
	c-0.6,2.9,0,5.8-0.2,8.8c0,3.5,0.4,7-0.2,10.4C185.5,75.4,185.2,72.9,184.8,72.6z"/>
<path class="st28" d="M270,60.5c-6.7-0.3-13.4,0.3-19.8,0.8c-0.7-3.5,4.6,0.3,2.7-3.8c1.3-0.3,2.4,0,3.3,1c4.4,0.9,8.8,0.7,13.2,0.1
	c0.8,0.1,1.6,0.3,2.4,0.4c0.1,0.4-0.1,0.7-0.3,0.9C271.1,60.3,270.6,60.5,270,60.5z"/>
<path class="st29" d="M138.2,75.5c2.4-3.3-0.4-7.5,1.7-10.9c0,0.7,0.1,1.3,0.1,2c0.2,11.9-0.5,12.5-12.4,10.9
	c-0.8-0.1-1.9,0-1.2-1.2c0.2-0.4,1.1-0.4,1.7-0.7c0.6,0.3,1.3,0.1,1.9,0C132.8,75.6,135.5,77.2,138.2,75.5z"/>
<path class="st30" d="M160.2,56.5c-0.5-5.7-1.4-11.4-1.1-17.2c0.1-1.6-0.3-3.3,1.2-4.6c0.2,0,0.5,0,0.7,0c-1.6,7.2,0.9,14.5,0,21.7
	c0,0-0.4,0-0.4,0L160.2,56.5z"/>
<path class="st31" d="M35.2,77.5c0-0.3-0.1-0.6-0.1-0.9c5.5-0.1,11.1-0.1,16.6-0.2C46.4,79.7,40.7,78.1,35.2,77.5z"/>
<path class="st0" d="M133,28.6c-5.6-1.3-5.8-1-6.1,7.7c-1.7-2.8-3.6-1.6-5.7-0.8c5.3-2.4,5.2-8.7,9.9-11.4c0.7,0.9,0.4,3.2,2.2,4.2
	C133.3,28.3,133,28.6,133,28.6z"/>
<path class="st32" d="M170.1,32.5c-2.2-1.4-2.1-4.2-3.7-6.1c-2.3,1.2-2.1,4.3-4.3,5.6c0.1-3.9,3.4-6.5,4.3-10.1
	C167,25.8,170.1,28.7,170.1,32.5z"/>
<path class="st33" d="M97.3,38.7c-2,5.1-2.6,10.5-2.2,16c0.1,1-0.1,2.2-1.1,2.6c-1.1,0.5-1.8-0.6-2.4-1.3c-0.2-0.3-0.2-0.8-0.2-1.2
	c5.7-0.4,1.9-4.6,2.3-6.8c0.7-3.4,1.3-6.7,3.2-9.7C97,38.5,97.2,38.6,97.3,38.7z"/>
<path class="st34" d="M89.1,76.5c-2.4,0-4.8,0-7.1,0c4-0.6,5.3-3,5.2-6.7c0-1.7,0.6-3.8,2.2-4c1.6-0.2,2.6,1.7,3,3.4
	c-0.2,0.1-0.3,0.3-0.5,0.4c-4,0.5-2.7,3.3-2.5,5.7C89.5,75.8,89.4,76.2,89.1,76.5z"/>
<path class="st35" d="M83.1,64.7c0-1.5,0-2.9,0-4.4c0-0.7-0.1-1.4,0.2-2c1.2-3.6-4.1-6.7-0.6-10.1C84.7,50.6,85.2,55.4,83.1,64.7z"
	/>
<path class="st36" d="M305.9,73.4c0.3,0.3,0.7,0.6,1,1c-5.6,0.3-11.2,0.7-16.8,1c0.5-4.1,4.7-0.5,6-2.9c0.5-0.3,0.9-0.4,1.5-0.2
	C300.3,73,303.3,71.5,305.9,73.4z"/>
<path class="st37" d="M205.1,64.5c-1.4-1.2-2.9-2.5-4.4-3.8c-1.3,1.8,0,4.1-1.9,5.8c-1.7-1.3-2.4-3.3-3.2-5.1
	c1.8-0.6,1.7,1.8,3.1,1.9c0.9-1.2-0.6-4,1.6-3.9C202.9,59.5,204.6,61.7,205.1,64.5z"/>
<path class="st38" d="M130,75.5c-0.6,0.9-1.2,1-1.9,0c2.1-5.5,0-11.6,2-17.1c0.2,0,0.5,0,0.7,0C130.6,64.2,130.3,69.9,130,75.5z"/>
<path class="st39" d="M270.7,59.7c0.4-0.2,0.8-0.5,1.1-0.7c5.1,1.2,8.2-2.6,11.9-4.8c0.2,0.1,0.3,0.2,0.4,0.4
	c-1.9,5.8-5.9,7.8-12.7,6.4C270.9,60.7,270.7,60.3,270.7,59.7z"/>
<path class="st40" d="M224.9,60.3c-0.5-3.6-2.3-7.6,2.3-10.2C224.4,53.1,226.6,57,224.9,60.3z"/>
<path class="st41" d="M113.2,58.5c-1.5-5.2-1-10.6-1.2-15.9c-0.4-1-0.9-2,0.9-1.9c0.3,6,0.6,11.9,0.9,17.9
	C113.7,58.5,113.4,58.5,113.2,58.5z"/>
<path class="st42" d="M42.5,66.4c2.1,2.4,5.6-0.4,7.7,2c0.3,0.1,0.4,0.3,0.4,0.5c-0.1,0.2-0.2,0.3-0.3,0.3
	c-3.8,0.1-7.6,0.6-11.2-0.6c1.2-0.4,2.3-0.9,2.1-2.5C41.8,65.2,42.1,66.1,42.5,66.4z"/>
<path class="st43" d="M103.2,60.5c0.3,0,0.5,0,0.8,0c0.1,4.1-0.2,8.3,0.3,12.4c0.5,4.4-1.5,5.2-5.1,4.4c-0.3-0.6-0.1-1.1,0.5-1.4
	c2.2,0.1,3-0.8,3.1-3.2C102.7,68.7,102,64.5,103.2,60.5z"/>
<path class="st44" d="M171.9,47.3c-0.2-0.7-0.5-1.3-0.7-2c3.6,0.3,7.3,0.6,10.9-0.3c0.2,3-2.1,2.4-3.8,2.5
	C176.2,47.6,174.1,47.4,171.9,47.3z"/>
<path class="st45" d="M158,20.5c-0.3,0-0.5,0-0.8,0c0-3.4-0.1-6.7-0.1-10.1c0.4-0.4,0.8-0.8,1.1-1.2c1.7,2.9,0.3,6.1,0.7,9.1
	C158.6,19.1,158.3,19.8,158,20.5z"/>
<path class="st46" d="M109.2,30.6c-0.3-0.3-0.6-0.6-0.9-0.9c-0.1-0.6-0.2-1.3-0.2-1.9c0-1.5,0.1-3,1.7-3.7c0.3-0.1,1.1-0.1,1.2,0
	c0.6,1.5,2.2,3.1,0.2,4.7C110.5,29.4,109.8,30,109.2,30.6z"/>
<path class="st47" d="M186,53.5c0-0.3,0-0.7,0.1-1c3.1,0.1,5.8-0.5,7.8-3.1c0.9-1.2,2.4-2.1,5.3-0.6c-5.1,0.7-6.9,6.1-11.9,4.9
	C186.8,53.9,186.4,53.9,186,53.5z"/>
<path class="st48" d="M118.2,50.5c1.4,6.3,2.1,12.6-0.4,18.9C117.9,63.1,118.1,56.8,118.2,50.5z"/>
<path class="st49" d="M99.1,76.5c0,0.3,0,0.5,0,0.8c-3.4,0.1-6.8,0.6-10.1-0.8c0-0.3,0-0.6-0.1-0.9c2.6-2.3,5.5-1.5,8.4-1
	C98.3,74.9,98.9,75.6,99.1,76.5z"/>
<path class="st33" d="M220.1,75.3c0-0.6,0-1.2,0-1.8c0-2.4,0-4.8-0.1-7.1c0-1.9,0.2-3.5,3.4-4.2c-2.6,2.9-2.3,5.6-1.7,8.4
	C222.1,72.4,223,74.6,220.1,75.3z"/>
<path class="st50" d="M309.4,68.5c0.5,0,1,0,1.4,0c1.2,6.4,6.9,4.5,12,5.6C312.9,75.4,312.9,75.4,309.4,68.5z"/>
<path class="st51" d="M186,53.5c0.4,0,0.8,0.1,1.3,0.1c-0.1,3-0.2,6-0.3,8.9c0,0-0.4,0-0.4,0s-0.4,0-0.4,0
	C184.8,59.5,184.4,56.5,186,53.5z"/>
<path class="st52" d="M6.3,78.3c0.3-0.3,0.7-0.6,1-0.9c5.3-2.2,10.6-2.4,15.9,0.2c0,0.2,0,0.5,0,0.7C17.5,78.3,11.9,78.3,6.3,78.3z"
	/>
<path class="st53" d="M214.5,71.5c-1.7,0.5-2.1-0.7-2.2-1.9c-0.5-3.4-0.8-6.8-1.2-10.2C214.2,62.9,212.1,67.8,214.5,71.5z"/>
<path class="st54" d="M118.1,34.5l-0.4,0l-0.4,0c-0.6-4.5,0.4-9.1-0.9-13.6C119.1,25.1,118,29.9,118.1,34.5z"/>
<path class="st55" d="M101.2,42.5l-0.5,0l-0.5,0c-0.4-1.4-0.6-2.8-1.1-4.2c-1.1-2.6-1,1-1.8,0.4c-0.1-0.2-0.3-0.3-0.5-0.4
	c0.5-2.1,1-4.2,1.8-7.7C99.5,35.5,101.2,38.8,101.2,42.5z"/>
<path class="st37" d="M211.1,59.5c-2,1.3-1.9,3.7-2.9,5.6c-0.4,0.8-0.6,2.1-1.8,1.8c-0.9-0.3-1.5-1.2-1.3-2.4c3.4,0.6,2.6-2.5,3.4-4
	C209.6,58,209.5,58,211.1,59.5z"/>
<path class="st18" d="M75,42.5c0.3,0,0.7,0,1,0c0.1,3.3,0.1,6.6,0.2,9.9c-0.5,1.6,0.5,3.5-0.9,4.9C75.2,52.4,75.1,47.5,75,42.5z"/>
<path class="st56" d="M51,68.4c0-1.6,1.5-3.4-1-4.5c-0.2-1.5,0.8-2.2,2-2.1c1.1,0,0.9,1.2,0.9,2c-0.1,1.6,0.5,3.3-0.6,4.8
	C51.8,68.9,51.4,68.9,51,68.4z"/>
<path class="st57" d="M51,68.4c0.4,0,0.8,0.1,1.3,0.1c1.4,2.2,0.1,4.8,0.9,7.2c-3.3-1-0.3-5-2.9-6.4c0-0.3,0-0.6-0.1-0.8
	C50.4,68.5,50.7,68.5,51,68.4z"/>
<path class="st58" d="M61.2,49.3c-0.1-0.7-0.1-1.3-0.2-2c0.1-1.4,0.2-2.9,0.3-4.3c0.6,3.3,2.7,6.4,1.6,9.9
	C61,52.4,62.5,50.2,61.2,49.3z"/>
<path class="st59" d="M158.1,70.4c-2.9,1.2-5.5,0.4-8-1c2.7,0,5.4,0.1,8,0.1C158.1,69.8,158.1,70.1,158.1,70.4z"/>
<path class="st50" d="M106.7,15.2c3.6-0.8,4-0.6,8.7,4.2c-3.5-0.3-4.8-4.4-8.1-3.6C107.2,15.6,107,15.4,106.7,15.2z"/>
<path class="st18" d="M234.1,62.5c-0.2,0.3-0.5,0.6-0.7,0.9c-1.7,1.1,0.4,2.8-0.6,4c-0.3,0.7-0.7,1.2-1.6,1c0-1.9-0.4-3.9,0-5.8
	C231.7,60.5,233,59.7,234.1,62.5z"/>
<path class="st60" d="M113,40.6c-0.3,0.6-0.6,1.3-0.9,1.9c-1-2.2-1.7-4.4,0.1-6.6C113.7,37.3,113,39,113,40.6z"/>
<path class="st22" d="M110.1,76.2c0-0.5,0-1,0-1.6c2.6,0.4,5.2,1.2,7.9,0.8c0.4,0,0.7,0,1.1,0C116.3,78.3,113.1,75.8,110.1,76.2z"/>
<path class="st61" d="M231.2,68.3c0.3-0.3,0.7-0.7,1-1c2.4,2,3,4.1,0,6.1c-0.4,0-0.9-0.1-1.3-0.1C231,71.7,231.1,70,231.2,68.3z"/>
<path class="st62" d="M239.2,44.5c-0.4-0.4-0.9-0.7-1.3-1.1c0.5-2.2-0.8-4.7,0.9-7.3C240.2,39.2,238.3,41.9,239.2,44.5z"/>
<path class="st33" d="M205.9,45.2c-0.6-1.9-3.3-1.3-3.5-3.3c0-0.4,0.7-1.9,1.5-1.3C205.4,41.5,206.2,43.2,205.9,45.2z"/>
<path class="st13" d="M113.2,58.5c0.2,0,0.5,0,0.7,0c0,3.3,0,6.6,0,10c0,0-0.3,0-0.3,0s-0.3,0-0.3,0
	C113.3,65.1,113.3,61.8,113.2,58.5z"/>
<path class="st63" d="M1,70.4c-0.3-0.3-0.6-0.7-1-1c0-1.3,0.1-2.6,0-3.9c-0.1-4,1.4-3,3.2-1.1c0,0-0.1,0.1-0.1,0.1
	C2.2,66.3,2.3,68.6,1,70.4z"/>
<path class="st64" d="M175.6,67.5c-2.3,0.3-1.4-2.8-3.6-3.2c0,2.2,0,4.2,0,6.3c0,1.2-0.2,2.6-1.6,2.5c-1.4-0.1-1.5-1.5-1.3-2.7
	c1.4,0.8,1.9,0.3,1.9-1.3c0.1-2.5-0.7-5.1,1.1-7.5C174.4,63.1,174.9,65.4,175.6,67.5z"/>
<path class="st65" d="M296.9,72.5c-0.3,0-0.5,0-0.8,0c0.5-7.5-1.6-15.1,0.2-22.6c2.6,6.3,1.4,13,1.8,19.5c-0.3,0.8-0.6,1.6-0.9,2.4
	C297.3,72,297.2,72.3,296.9,72.5z"/>
<path class="st66" d="M254.1,66.9c-0.5,1.8,1.6,6.4-3.4,3c-0.2,0.9-0.4,1.8-0.6,2.6c-1.9-1.4-1.1-3.4-1.3-5.4
	C250.7,67,252.7,70.9,254.1,66.9z"/>
<path class="st67" d="M269.9,72.7c-0.6-0.4-1.8,0.1-1.8-1.2c2,0.1,1.8-1.3,1.7-2.7c0-2.8,0.1-5.6,0.2-8.4c0.2-0.3,0.4-0.5,0.6-0.8
	c0.2,0.3,0.3,0.6,0.5,1c2,3,1,6.3,1.1,9.5c-0.1,0.5-0.2,1.1-0.4,1.6c-0.1,0.2-0.3,0.5-0.4,0.7C271,72.8,270.5,72.9,269.9,72.7z"/>
<path class="st68" d="M99.1,76.5c-0.4-0.3-0.8-0.6-1.2-0.9c1-1.1,2-1,3.1-0.1c2.3-1.6,0.9-3.9,1-5.8c0.2-5.7,0.1-11.4,0.1-17.2
	c0.1-0.9,0.3-1.8,0.4-2.7c0.2,0,0.4,0,0.6,0c0,3.6,0,7.1,0,10.7c0,3.9-0.2,7.9,0,11.8C103.4,75.5,102.4,76.9,99.1,76.5z"/>
<path class="st69" d="M269.9,72.7c0.4,0,0.8,0,1.2-0.1c5-1,10-0.4,15-0.4c1-0.2,1.4,0.4,1.8,1.2c0,0.3,0,0.7,0,1
	c-12.2,0-24.5-0.1-36.7-0.1c-0.1-0.3-0.1-0.6,0-0.9C257.4,73.2,263.7,74.4,269.9,72.7z"/>
<path class="st70" d="M287,72.4c0-0.3,0-0.6,0-0.9c0-6.1,0-12.1,0-18.2c0.3,0,0.6,0,0.9,0c0,6.7,0,13.4,0,20.2
	C287.6,73.1,287.3,72.7,287,72.4z"/>
<path class="st71" d="M76.9,61.6c0,2.9,0,5.7,0,8.6c-0.2,0-0.3,0-0.5,0c0-2.9,0-5.7,0-8.6C76.6,61.7,76.8,61.6,76.9,61.6z"/>
<path class="st72" d="M277.1,67.5c-0.2,3.9-1.6,6.3-6.1,5c0-0.4,0.1-0.8,0.1-1.1c2.4,0.3,4.5,0.5,3.8-3.2
	C274.7,66.2,275.8,65.8,277.1,67.5z"/>
<path class="st73" d="M282.5,68.4c-1.8,3.9-1.8,3.9-5.5-1C278.9,67.3,280.2,70.4,282.5,68.4z"/>
</svg>
